<?xml version="1.0" encoding="UTF-8"?><svg id="Layer_1" xmlns="http://www.w3.org/2000/svg" viewBox="0 0 1024 1024"><defs><style>.cls-1{fill:#e5ab81;}.cls-2{fill:#71acc7;}</style></defs><path class="cls-1" d="M235.07,884.07c-8.53,7.84-18.85,11.57-30.93,11.2-12.1-.35-22.05-4.8-29.87-13.33-24.9-27.02-45.17-56.88-60.8-89.6-15.65-32.7-23.47-67.55-23.47-104.54s4.97-70.04,14.93-103.46c9.95-33.42,22.03-66.14,36.27-98.14,10.67-25.6,20.62-51.36,29.87-77.33,9.23-25.95,13.87-52.8,13.87-80.53,0-24.89-6.4-48-19.2-69.34-12.8-21.33-28.45-40.53-46.93-57.6-8.53-7.82-12.8-17.6-12.8-29.33s3.9-21.87,11.73-30.4c7.82-8.53,17.6-12.97,29.33-13.33,11.73-.35,21.87,3.38,30.4,11.2,27.02,24.9,49.23,53.33,66.67,85.33,17.42,32,26.13,66.5,26.13,103.47,0,33.43-4.8,65.96-14.4,97.6-9.6,31.65-21.17,62.77-34.67,93.33-12.1,27.04-22.77,54.23-32,81.6-9.25,27.38-13.87,56-13.87,85.87,0,26.32,5.68,51.03,17.07,74.13,11.37,23.12,26.3,44.27,44.8,63.47,7.82,8.53,11.55,18.66,11.2,30.4-.37,11.73-4.8,21.52-13.33,29.33Z"/><path class="cls-1" d="M405.73,884.07c-8.53,7.84-18.85,11.57-30.93,11.2-12.1-.35-22.05-4.8-29.87-13.33-24.9-27.02-45.17-56.88-60.8-89.6-15.65-32.7-23.47-67.55-23.47-104.54s4.97-70.04,14.93-103.46c9.95-33.42,22.03-66.14,36.27-98.14,10.67-25.6,20.62-51.36,29.87-77.33,9.23-25.95,13.87-52.8,13.87-80.53,0-24.89-6.4-48-19.2-69.34-12.8-21.33-28.45-40.53-46.93-57.6-8.53-7.82-12.8-17.6-12.8-29.33s3.9-21.87,11.73-30.4c7.82-8.53,17.6-12.97,29.33-13.33,11.73-.35,21.87,3.38,30.4,11.2,27.02,24.9,49.23,53.33,66.67,85.33,17.42,32,26.13,66.5,26.13,103.47,0,33.43-4.8,65.78-14.4,97.07-9.6,31.3-21.17,62.23-34.67,92.8-12.1,27.04-22.77,54.4-32,82.14-9.25,27.73-13.87,56.53-13.87,86.4,0,26.32,5.68,51.03,17.07,74.13,11.37,23.12,26.3,44.27,44.8,63.47,7.82,8.53,11.55,18.66,11.2,30.4-.37,11.73-4.8,21.52-13.33,29.33Z"/><path class="cls-2" d="M499.6,895.8V127.8c0-12.08,4.09-22.22,12.27-30.4,8.17-8.17,18.3-12.27,30.4-12.27s22.21,4.1,30.4,12.27c8.16,8.18,12.27,18.32,12.27,30.4v134.4l108.8-107.73c7.82-7.82,17.6-11.73,29.34-11.73s21.87,4.27,30.4,12.8c7.82,7.83,11.73,17.78,11.73,29.87s-3.91,22.05-11.73,29.87l-168.53,168.53v85.33h85.34l168.53-168.53c7.81-7.82,17.77-11.73,29.87-11.73s22.03,3.92,29.87,11.73c7.81,7.83,11.73,17.78,11.73,29.87s-3.92,22.05-11.73,29.87l-106.67,108.8h134.41c12.08,0,22.21,4.1,30.4,12.27,8.16,8.18,12.27,18.32,12.27,30.4s-4.1,22.23-12.27,30.4c-8.19,8.18-18.32,12.27-30.4,12.27h-134.41l107.73,108.8c7.82,7.84,11.73,17.6,11.73,29.34s-4.27,21.87-12.8,30.4c-7.84,7.84-17.79,11.73-29.87,11.73s-22.05-3.9-29.87-11.73l-168.53-168.53h-85.34v85.33l168.53,168.54c7.82,7.83,11.73,17.78,11.73,29.86s-3.91,22.05-11.73,29.87c-7.83,7.84-17.78,11.73-29.87,11.73s-22.05-3.9-29.87-11.73l-108.8-106.66v134.4c0,12.1-4.1,22.23-12.27,30.4-8.19,8.18-18.32,12.27-30.4,12.27s-22.23-4.09-30.4-12.27c-8.18-8.16-12.27-18.3-12.27-30.4Z"/></svg>