<?xml version="1.0" encoding="UTF-8"?><svg id="Layer_1" xmlns="http://www.w3.org/2000/svg" viewBox="0 0 219.73 213.33"><defs><style>.cls-1{fill:#e5ab81;}.cls-2{fill:#71acc7;}</style></defs><path class="cls-1" d="M36.27,199.73c-2.13,1.96-4.71,2.89-7.73,2.8-3.02-.09-5.51-1.2-7.47-3.33-6.22-6.75-11.29-14.22-15.2-22.4-3.91-8.18-5.87-16.89-5.87-26.13s1.24-17.51,3.73-25.87c2.49-8.35,5.51-16.53,9.07-24.53,2.67-6.4,5.15-12.84,7.47-19.33,2.31-6.49,3.47-13.2,3.47-20.13,0-6.22-1.6-12-4.8-17.33-3.2-5.33-7.11-10.13-11.73-14.4-2.13-1.95-3.2-4.4-3.2-7.33s.98-5.47,2.93-7.6c1.95-2.13,4.4-3.24,7.33-3.33,2.93-.09,5.47.85,7.6,2.8,6.75,6.23,12.31,13.33,16.67,21.33,4.35,8,6.53,16.62,6.53,25.87,0,8.36-1.2,16.49-3.6,24.4-2.4,7.91-5.29,15.69-8.67,23.33-3.02,6.76-5.69,13.56-8,20.4-2.31,6.85-3.47,14-3.47,21.47,0,6.58,1.42,12.76,4.27,18.53,2.84,5.78,6.57,11.07,11.2,15.87,1.95,2.13,2.89,4.67,2.8,7.6-.09,2.93-1.2,5.38-3.33,7.33Z"/><path class="cls-1" d="M78.93,199.73c-2.13,1.96-4.71,2.89-7.73,2.8-3.02-.09-5.51-1.2-7.47-3.33-6.23-6.75-11.29-14.22-15.2-22.4-3.91-8.18-5.87-16.89-5.87-26.13s1.24-17.51,3.73-25.87c2.49-8.35,5.51-16.53,9.07-24.53,2.67-6.4,5.15-12.84,7.47-19.33,2.31-6.49,3.47-13.2,3.47-20.13,0-6.22-1.6-12-4.8-17.33-3.2-5.33-7.11-10.13-11.73-14.4-2.13-1.95-3.2-4.4-3.2-7.33s.98-5.47,2.93-7.6c1.95-2.13,4.4-3.24,7.33-3.33,2.93-.09,5.47.85,7.6,2.8,6.75,6.23,12.31,13.33,16.67,21.33,4.35,8,6.53,16.62,6.53,25.87,0,8.36-1.2,16.45-3.6,24.27-2.4,7.82-5.29,15.56-8.67,23.2-3.03,6.76-5.69,13.6-8,20.53-2.31,6.93-3.47,14.13-3.47,21.6,0,6.58,1.42,12.76,4.27,18.53,2.84,5.78,6.58,11.07,11.2,15.87,1.95,2.13,2.89,4.67,2.8,7.6-.09,2.93-1.2,5.38-3.33,7.33Z"/><path class="cls-2" d="M102.4,202.67V10.67c0-3.02,1.02-5.55,3.07-7.6,2.04-2.04,4.58-3.07,7.6-3.07s5.55,1.02,7.6,3.07c2.04,2.05,3.07,4.58,3.07,7.6v33.6l27.2-26.93c1.96-1.95,4.4-2.93,7.33-2.93s5.47,1.07,7.6,3.2c1.96,1.96,2.93,4.45,2.93,7.47s-.98,5.51-2.93,7.47l-42.13,42.13v21.33h21.33l42.13-42.13c1.95-1.95,4.44-2.93,7.47-2.93s5.51.98,7.47,2.93c1.95,1.96,2.93,4.45,2.93,7.47s-.98,5.51-2.93,7.47l-26.67,27.2h33.6c3.02,0,5.55,1.03,7.6,3.07,2.04,2.05,3.07,4.58,3.07,7.6s-1.03,5.56-3.07,7.6c-2.05,2.05-4.58,3.07-7.6,3.07h-33.6l26.93,27.2c1.96,1.96,2.93,4.4,2.93,7.33s-1.07,5.47-3.2,7.6c-1.96,1.96-4.45,2.93-7.47,2.93s-5.51-.97-7.47-2.93l-42.13-42.13h-21.33v21.33l42.13,42.13c1.96,1.96,2.93,4.45,2.93,7.47s-.98,5.51-2.93,7.47c-1.96,1.96-4.45,2.93-7.47,2.93s-5.51-.97-7.47-2.93l-27.2-26.67v33.6c0,3.03-1.03,5.56-3.07,7.6-2.05,2.05-4.58,3.07-7.6,3.07s-5.56-1.02-7.6-3.07c-2.05-2.04-3.07-4.57-3.07-7.6Z"/></svg>